<?xml version="1.0" encoding="UTF-8" standalone="no"?>
<!DOCTYPE svg PUBLIC "-//W3C//DTD SVG 1.1//EN" "http://www.w3.org/Graphics/SVG/1.1/DTD/svg11.dtd">
<svg version="1.1" xmlns="http://www.w3.org/2000/svg" xmlns:xlink="http://www.w3.org/1999/xlink" preserveAspectRatio="xMidYMid meet" viewBox="0 0 640 640" width="640" height="640"><defs><path d="M252.52 190.01C252.52 193.88 252.52 213.24 252.52 248.1C212.46 248.1 190.21 248.1 185.76 248.1C179.99 248.1 175.32 252.78 175.32 258.55C175.32 266.96 175.32 334.3 175.32 342.72C175.32 348.49 180 353.16 185.76 353.16C190.21 353.16 212.46 353.16 252.52 353.16C252.52 480.6 252.52 551.4 252.52 565.56C252.52 571.33 257.19 576 262.96 576C271.67 576 341.35 576 350.06 576C355.82 576 360.5 571.32 360.5 565.56C360.5 551.4 360.5 480.6 360.5 353.16C407.33 353.16 433.35 353.16 438.55 353.16C444.32 353.16 448.99 348.49 448.99 342.72C448.99 334.3 449.02 266.96 449.02 258.55C449.02 255.78 447.92 253.12 445.96 251.16C444.01 249.2 441.35 248.1 438.58 248.1C433.37 248.1 407.34 248.1 360.5 248.1C360.5 218.55 360.5 202.14 360.5 198.85C360.5 175.18 366.14 163.17 396.97 163.17C401.44 163.16 437.23 163.15 441.7 163.15C447.46 163.15 452.13 158.47 452.13 152.71C452.13 144.89 452.13 82.37 452.13 74.55C452.13 68.79 447.47 64.12 441.71 64.11C428.43 64.09 381.95 64.01 375.31 64C300.72 64 252.52 113.46 252.52 190.01Z" id="a1AWKMTNz"></path></defs><g><g><g><use xlink:href="#a1AWKMTNz" opacity="1" fill="#ffffff" fill-opacity="1"></use><g><use xlink:href="#a1AWKMTNz" opacity="1" fill-opacity="0" stroke="#000000" stroke-width="1" stroke-opacity="0"></use></g></g></g></g></svg>