<?xml version="1.0" encoding="UTF-8" standalone="no"?>
<!DOCTYPE svg PUBLIC "-//W3C//DTD SVG 1.1//EN" "http://www.w3.org/Graphics/SVG/1.1/DTD/svg11.dtd">
<svg version="1.1" xmlns="http://www.w3.org/2000/svg" xmlns:xlink="http://www.w3.org/1999/xlink" preserveAspectRatio="xMidYMid meet" viewBox="0 0 640 640" width="640" height="640"><defs><path d="M317.58 0C242.99 0 194.79 49.46 194.79 126.01C194.79 129.88 194.79 149.24 194.79 184.1C154.73 184.1 132.48 184.1 128.03 184.1C122.26 184.1 117.59 188.78 117.59 194.55C117.59 202.96 117.59 270.3 117.59 278.72C117.59 284.49 122.27 289.16 128.03 289.16C132.48 289.16 154.73 289.16 194.79 289.16C194.79 416.6 194.79 487.4 194.79 501.56C194.79 507.33 199.46 512 205.23 512C213.94 512 283.62 512 292.33 512C298.09 512 302.77 507.32 302.77 501.56C302.77 487.4 302.77 416.6 302.77 289.16C349.6 289.16 375.62 289.16 380.82 289.16C386.59 289.16 391.26 284.49 391.26 278.72C391.26 270.3 391.29 202.96 391.29 194.55C391.29 191.78 390.19 189.12 388.23 187.16C386.28 185.2 383.62 184.1 380.85 184.1C375.64 184.1 349.61 184.1 302.77 184.1C302.77 154.55 302.77 138.14 302.77 134.85C302.77 111.18 308.41 99.17 339.24 99.17C343.71 99.16 379.5 99.15 383.97 99.15C389.73 99.15 394.4 94.47 394.4 88.71C394.4 80.89 394.4 18.37 394.4 10.55C394.4 4.79 389.74 0.12 383.98 0.11C370.7 0.09 324.22 0.01 317.58 0Z" id="cqD94d3qY"></path></defs><g><g><g><use xlink:href="#cqD94d3qY" opacity="1" fill="#4f9e34" fill-opacity="1"></use><g><use xlink:href="#cqD94d3qY" opacity="1" fill-opacity="0" stroke="#000000" stroke-width="1" stroke-opacity="0"></use></g></g></g></g></svg>