<?xml version="1.0" encoding="UTF-8" standalone="no"?>
<!DOCTYPE svg PUBLIC "-//W3C//DTD SVG 1.1//EN" "http://www.w3.org/Graphics/SVG/1.1/DTD/svg11.dtd">
<svg version="1.1" xmlns="http://www.w3.org/2000/svg" xmlns:xlink="http://www.w3.org/1999/xlink" preserveAspectRatio="xMidYMid meet" viewBox="0 0 640 640" width="640" height="640"><defs><path d="M587.44 129.71C587.44 167.77 587.44 472.23 587.44 510.29C587.44 549.24 557.87 576 521.72 576C483.67 576 179.21 576 141.16 576C105.01 576 75.44 549.24 75.44 510.29C75.44 472.23 75.44 167.77 75.44 129.71C75.44 90.76 105.01 64 141.16 64C141.16 64 141.16 64 141.16 64C369.5 64 496.35 64 521.72 64C557.87 64 587.44 90.76 587.44 129.71ZM425.37 199.11C425.37 211.79 435.73 222.16 448.41 222.16C454.2 222.16 500.49 222.16 506.28 222.16C518.96 222.16 529.33 211.79 529.33 199.11C529.33 193.59 529.33 149.45 529.33 143.94C529.33 131.25 518.96 120.89 506.28 120.89C502.42 120.89 483.13 120.89 448.41 120.89C448.41 120.89 448.41 120.89 448.41 120.89C433.05 127.8 425.37 135.48 425.37 143.94C425.37 149.45 425.37 193.59 425.37 199.11ZM491.08 324.44C491.08 409.61 419.82 478.64 331.93 478.64C244.04 478.64 172.79 409.61 172.79 324.44C172.79 309.18 175.09 294.44 179.36 280.52C176.23 280.52 160.55 280.52 132.34 280.52C132.34 410.29 132.34 482.38 132.34 496.8C132.34 507.99 141.49 517.15 152.69 517.15C188.35 517.15 473.57 517.15 509.23 517.15C520.43 517.15 529.58 508 529.58 496.8C529.58 482.38 529.58 410.29 529.58 280.52C529.58 280.52 529.57 280.52 529.57 280.52C502.53 280.52 487.51 280.52 484.51 280.52C488.77 294.44 491.08 309.19 491.08 324.44ZM331.92 418.52C388.71 418.52 434.76 373.92 434.76 318.89C434.76 263.86 388.72 219.25 331.92 219.25C275.14 219.25 229.1 263.86 229.1 318.89C229.1 373.92 275.14 418.52 331.92 418.52Z" id="aE4u2dlEk"></path><path d="M587.44 129.71C587.44 167.77 587.44 472.23 587.44 510.29C587.44 549.24 557.87 576 521.72 576C483.67 576 179.21 576 141.16 576C105.01 576 75.44 549.24 75.44 510.29C75.44 472.23 75.44 167.77 75.44 129.71C75.44 90.76 105.01 64 141.16 64C141.16 64 141.16 64 141.16 64C369.5 64 496.35 64 521.72 64C557.87 64 587.44 90.76 587.44 129.71ZM425.37 199.11C425.37 211.79 435.73 222.16 448.41 222.16C454.2 222.16 500.49 222.16 506.28 222.16C518.96 222.16 529.33 211.79 529.33 199.11C529.33 193.59 529.33 149.45 529.33 143.94C529.33 131.25 518.96 120.89 506.28 120.89C502.42 120.89 483.13 120.89 448.41 120.89C448.41 120.89 448.41 120.89 448.41 120.89C433.05 127.8 425.37 135.48 425.37 143.94C425.37 149.45 425.37 193.59 425.37 199.11ZM491.08 324.44C491.08 409.61 419.82 478.64 331.93 478.64C244.04 478.64 172.79 409.61 172.79 324.44C172.79 309.18 175.09 294.44 179.36 280.52C176.23 280.52 160.55 280.52 132.34 280.52C132.34 410.29 132.34 482.38 132.34 496.8C132.34 507.99 141.49 517.15 152.69 517.15C188.35 517.15 473.57 517.15 509.23 517.15C520.43 517.15 529.58 508 529.58 496.8C529.58 482.38 529.58 410.29 529.58 280.52C529.58 280.52 529.57 280.52 529.57 280.52C502.53 280.52 487.51 280.52 484.51 280.52C488.77 294.44 491.08 309.19 491.08 324.44ZM331.92 418.52C388.71 418.52 434.76 373.92 434.76 318.89C434.76 263.86 388.72 219.25 331.92 219.25C275.14 219.25 229.1 263.86 229.1 318.89C229.1 373.92 275.14 418.52 331.92 418.52Z" id="bvykVGutF"></path></defs><g><g><g><use xlink:href="#aE4u2dlEk" opacity="1" fill="#ffffff" fill-opacity="1"></use><g><use xlink:href="#aE4u2dlEk" opacity="1" fill-opacity="0" stroke="#000000" stroke-width="1" stroke-opacity="0"></use></g></g><g><use xlink:href="#bvykVGutF" opacity="1" fill="#000000" fill-opacity="0"></use><g><use xlink:href="#bvykVGutF" opacity="1" fill-opacity="0" stroke="#000000" stroke-width="1" stroke-opacity="0"></use></g></g></g></g></svg>