<?xml version="1.0" encoding="UTF-8" standalone="no"?>
<!DOCTYPE svg PUBLIC "-//W3C//DTD SVG 1.1//EN" "http://www.w3.org/Graphics/SVG/1.1/DTD/svg11.dtd">
<svg version="1.1" xmlns="http://www.w3.org/2000/svg" xmlns:xlink="http://www.w3.org/1999/xlink" preserveAspectRatio="xMidYMid meet" viewBox="0 0 640 640" width="640" height="640"><defs><path d="M533.33 185.11C555.02 172.12 571.63 151.52 579.5 127.04C559.15 139.07 536.69 147.8 512.76 152.54C493.6 132.1 466.34 119.36 436.1 119.36C378.1 119.36 331.07 166.39 331.07 224.37C331.07 232.59 331.99 240.62 333.79 248.3C246.51 243.91 169.11 202.1 117.31 138.56C108.26 154.04 103.11 172.09 103.11 191.35C103.11 227.79 121.67 259.94 149.82 278.76C132.61 278.18 116.42 273.44 102.25 265.57C102.25 265.71 102.25 266.75 102.25 266.89C102.25 317.76 138.46 360.21 186.49 369.87C177.69 372.24 168.41 373.55 158.81 373.55C152.03 373.55 145.47 372.88 139.04 371.6C152.41 413.35 191.19 443.72 237.13 444.55C201.2 472.7 155.9 489.44 106.69 489.44C98.22 489.44 89.86 488.92 81.64 488C128.13 517.85 183.32 535.25 242.64 535.25C435.85 535.25 541.46 375.22 541.46 236.43C541.42 235.07 541.14 224.19 541.11 222.83C561.74 208.11 579.6 189.62 593.64 168.57C574.8 176.92 554.58 182.58 533.33 185.11Z" id="dfm30OasS"></path></defs><g><g><g><use xlink:href="#dfm30OasS" opacity="1" fill="#4f9e34" fill-opacity="1"></use><g><use xlink:href="#dfm30OasS" opacity="1" fill-opacity="0" stroke="#000000" stroke-width="1" stroke-opacity="0"></use></g></g></g></g></svg>