<?xml version="1.0" encoding="UTF-8" standalone="no"?>
<!DOCTYPE svg PUBLIC "-//W3C//DTD SVG 1.1//EN" "http://www.w3.org/Graphics/SVG/1.1/DTD/svg11.dtd">
<svg version="1.1" xmlns="http://www.w3.org/2000/svg" xmlns:xlink="http://www.w3.org/1999/xlink" preserveAspectRatio="xMidYMid meet" viewBox="0 0 640 640" width="640" height="640"><defs><path d="M383.87 94.3C517.5 94.3 549.31 124.12 549.31 249.35C549.31 263.07 549.31 372.8 549.31 386.51C549.31 511.75 517.5 541.56 383.87 541.56C369.24 541.56 252.16 541.56 237.52 541.56C103.9 541.56 72.09 511.75 72.09 386.51C72.09 372.8 72.09 263.07 72.09 249.35C72.09 124.12 103.9 94.3 237.52 94.3C266.79 94.3 369.24 94.3 383.87 94.3Z" id="b21iIr7M4S"></path><path d="M446.18 238.47C442.7 238.47 414.86 238.47 411.38 238.47C402.53 238.47 398.45 242.85 396.24 247.69C396.24 247.69 378.54 288.12 353.47 314.37C345.36 321.98 341.68 324.39 337.25 324.39C335.04 324.39 331.84 321.98 331.84 315.07C331.84 308.61 331.84 256.92 331.84 250.46C331.84 242.16 329.27 238.47 321.9 238.47C316.43 238.47 272.68 238.47 267.22 238.47C261.69 238.47 258.36 242.32 258.36 245.96C258.36 253.83 270.89 255.64 272.19 277.75C272.19 282.55 272.19 320.97 272.19 325.78C272.19 336.31 270.16 338.22 265.73 338.22C253.94 338.22 225.24 297.61 208.22 251.15C204.89 242.12 201.54 238.47 192.65 238.47C189.17 238.47 161.33 238.47 157.85 238.47C147.91 238.47 145.92 242.85 145.92 247.69C145.92 256.33 157.72 299.17 200.85 355.84C229.6 394.53 270.12 415.51 306.98 415.51C329.1 415.51 331.84 410.85 331.84 402.82C331.84 399.9 331.84 376.5 331.84 373.58C331.84 364.26 333.94 362.4 340.94 362.4C346.1 362.4 354.95 364.82 375.59 383.48C399.19 405.59 403.08 415.51 416.35 415.51C419.83 415.51 447.67 415.51 451.15 415.51C461.09 415.51 466.06 410.85 463.19 401.66C460.05 392.49 448.79 379.2 433.84 363.44C425.73 354.45 413.57 344.78 409.88 339.94C404.72 333.72 406.19 330.96 409.88 325.43C409.88 325.43 452.28 269.46 456.7 250.46C458.91 243.55 456.7 238.47 446.18 238.47Z" id="au25O6i8s"></path></defs><g><g><g><use xlink:href="#b21iIr7M4S" opacity="1" fill="#4f9e34" fill-opacity="1"></use><g><use xlink:href="#b21iIr7M4S" opacity="1" fill-opacity="0" stroke="#000000" stroke-width="1" stroke-opacity="0"></use></g></g><g><use xlink:href="#au25O6i8s" opacity="1" fill="#ffffff" fill-opacity="1"></use><g><use xlink:href="#au25O6i8s" opacity="1" fill-opacity="0" stroke="#000000" stroke-width="1" stroke-opacity="0"></use></g></g></g></g></svg>